<svg width="27" height="20" viewBox="0 0 27 20" fill="none" xmlns="http://www.w3.org/2000/svg">
<path opacity="0.24" fill-rule="evenodd" clip-rule="evenodd" d="M22.2082 2.86766L18.4091 5.68182V2.50266C18.4091 1.11814 17.3104 0 15.955 0H2.4541C1.09644 0 0 1.12048 0 2.50266V17.4973C0 18.8819 1.09874 20 2.4541 20H15.955C17.3126 20 18.4091 18.8795 18.4091 17.4973V14.3182L22.2082 17.1323C22.48 17.3336 22.9801 17.5 23.32 17.5H25.7691C26.456 17.5 27 16.939 27 16.2469V3.75309C27 3.06064 26.4489 2.5 25.7691 2.5H23.32C22.9732 2.5 22.4823 2.66461 22.2082 2.86766ZM2 18V3H16V18H2ZM5 14.5C5 13.6716 5.57668 13 6.28948 13H12.7105C13.4227 13 14 13.6658 14 14.5C14 15.3284 13.4233 16 12.7105 16H6.28948C5.57732 16 5 15.3342 5 14.5ZM22.9859 15L18 11.2394L18.0003 8.76398L22.9825 5L24 5.00157V14.999L22.9859 15Z" fill="black"/>
</svg>
