<svg width="19" height="18" viewBox="0 0 19 18" fill="none" xmlns="http://www.w3.org/2000/svg">
<path opacity="0.24" fill-rule="evenodd" clip-rule="evenodd" d="M15.8408 16.3299C16.0607 17.5986 14.9502 18.3957 13.7994 17.7972C13.7994 17.7972 9.47753 15.5728 9.51952 15.5509L5.20071 17.7972C4.049 18.3962 2.93951 17.5976 3.15929 16.3299C3.15929 16.3299 3.96219 11.5762 3.99616 11.609L0.502166 8.2396C-0.429582 7.34109 -0.0047513 6.05043 1.28192 5.86547C1.28192 5.86547 6.09996 5.15192 6.07896 5.19401L8.23837 0.865408C8.81422 -0.288907 10.1863 -0.288031 10.7617 0.865408C10.7617 0.865408 12.9365 5.17809 12.8896 5.17134L17.7181 5.86547C19.0058 6.05057 19.4289 7.34178 18.4979 8.2396C18.4979 8.2396 15.024 11.6185 15.0159 11.5723L15.8408 16.3299ZM5.67461 15.9963L9.14384 14.2157C9.65197 13.955 10.3537 13.9556 10.8606 14.2157L14.3384 16L13.6672 12.2257C13.5701 11.6735 13.7876 11.0224 14.1977 10.6323L17 7.96648L13.1257 7.41242C12.5576 7.33186 11.9902 6.92881 11.7368 6.42763L10.0034 3L8.26768 6.42763C8.01361 6.93002 7.44551 7.33205 6.87878 7.41242L3 7.96246L5.80677 10.6323C6.21785 11.0233 6.43409 11.6748 6.33728 12.2257L5.67461 15.9963Z" fill="black"/>
</svg>
