<svg width="22" height="16" viewBox="0 0 22 16" fill="none" xmlns="http://www.w3.org/2000/svg">
<path opacity="0.24" fill-rule="evenodd" clip-rule="evenodd" d="M12.9034 0.5233C12.1075 0.810958 11.7676 0.88899 10.9998 0.88899C10.232 0.88899 9.89216 0.810958 9.09627 0.5233L9.03409 0.500814C8.02943 0.137542 7.43229 0 6.44525 0C4.05055 0 1.85231 2.2826 0.942996 5.06478C0.245262 7.1996 0.0589768 8.56701 0 11.5385C0.0582506 14.4925 1.34092 15.9856 3.66063 16C5.11467 15.9917 6.11219 15.363 7.03418 14.2208C7.17642 14.0446 7.56758 13.5231 7.60944 13.4673L7.61308 13.4625C8.56208 12.235 9.54325 11.5652 11.0027 11.5556C12.4564 11.5652 13.4376 12.235 14.3866 13.4625L14.3902 13.4673C14.4321 13.5231 14.8232 14.0446 14.9655 14.2208C15.8875 15.363 16.885 15.9917 18.3278 16C20.6587 15.9856 21.9414 14.4925 21.9997 11.5727C21.9407 8.56701 21.7544 7.1996 21.0567 5.06478C20.1474 2.2826 17.9491 0 15.5544 0C14.5674 0 13.9702 0.137542 12.9656 0.500814L12.9034 0.5233ZM8.50244 2.39666C9.47042 2.74028 10.0982 2.85723 11 2.85723C11.9017 2.85723 12.5296 2.74028 13.4976 2.39666L13.5588 2.37489C14.3617 2.08977 14.7585 2 15.4717 2C16.8708 2 18.4754 3.63653 19.1579 5.68753C19.7839 7.56851 19.9452 8.73119 20 11.4451C19.9604 13.3632 19.4099 13.9926 18.1941 14C17.4345 13.9957 16.91 13.671 16.3108 12.942C16.2112 12.8208 15.9296 12.4534 15.8146 12.3032L15.7653 12.239C14.53 10.6698 13.1248 9.72783 10.9944 9.71431C8.87519 9.72784 7.46996 10.6698 6.23471 12.239L6.1854 12.3033L6.18539 12.3033C6.07029 12.4534 5.78874 12.8208 5.68915 12.942C5.08996 13.671 4.56553 13.9957 3.79484 14C2.59013 13.9926 2.03963 13.3632 2 11.412C2.05484 8.73119 2.21612 7.56851 2.84206 5.68753C3.52457 3.63653 5.12924 2 6.52832 2C7.24149 2 7.6383 2.08977 8.44115 2.37489L8.50244 2.39666ZM16 6C15.4477 6 15 5.55228 15 5C15 4.44772 15.4477 4 16 4C16.5523 4 17 4.44772 17 5C17 5.55228 16.5523 6 16 6ZM15 9C15 9.55229 15.4477 10 16 10C16.5523 10 17 9.55229 17 9C17 8.44771 16.5523 8 16 8C15.4477 8 15 8.44771 15 9ZM17 8C16.4477 8 16 7.55228 16 7C16 6.44772 16.4477 6 17 6C17.5523 6 18 6.44772 18 7C18 7.55228 17.5523 8 17 8ZM13 7C13 7.55228 13.4477 8 14 8C14.5523 8 15 7.55228 15 7C15 6.44772 14.5523 6 14 6C13.4477 6 13 6.44772 13 7ZM7 9C5.34315 9 4 7.88071 4 6.5C4 5.11929 5.34315 4 7 4C8.65685 4 10 5.11929 10 6.5C10 7.88071 8.65685 9 7 9ZM7 7C7 7.55228 6.55228 8 6 8C5.44772 8 5 7.55228 5 7C5 6.44772 5.44772 6 6 6C6.55228 6 7 6.44772 7 7Z" fill="black"/>
</svg>
