<svg width="20" height="18" viewBox="0 0 20 18" fill="none" xmlns="http://www.w3.org/2000/svg">
<path opacity="0.24" fill-rule="evenodd" clip-rule="evenodd" d="M6.36364 0C4.85741 0 3.63636 1.20746 3.63636 2.69744V12.6H0.909091C0.407014 12.6 0 13.0042 0 13.4991V15.3C0 16.7912 1.22411 18 2.72727 18H13.6364C15.1423 18 16.3636 16.7944 16.3636 15.3045V5.4H19.0909C19.5965 5.4 20 4.99813 20 4.5024V2.70439C20 1.21111 18.7799 0 17.2727 0H6.36364ZM5 16C5.09744 15.7271 5.15044 15.4334 5.15044 15.1275V2.87251C5.15044 2.39089 5.54618 2 6.0354 2C6.5225 2 6.92035 2.39307 6.92035 2.875V4.62591C6.92035 5.10866 7.31315 5.5 7.80531 5.5H14V15.1294C14 15.6102 13.6047 16 13.115 16H5ZM2 14V15C2 15.5508 2.44957 16 3 16C3.55282 16 4 15.5533 4 15.0028V14H2ZM9.15137 4V3C9.15137 2.64936 9.09801 2.31278 9 2H17.1151C17.6037 2 18 2.44905 18 3.00488V4H9.15137Z" fill="black"/>
</svg>
