<svg width="20" height="19" viewBox="0 0 20 19" fill="none" xmlns="http://www.w3.org/2000/svg">
<path fill-rule="evenodd" clip-rule="evenodd" d="M1.55192 10.5921C1.19689 10.9455 0.621289 10.9455 0.266267 10.5921C-0.0887555 10.2388 -0.0887555 9.66595 0.266267 9.31262L9.35718 0.264999C9.7122 -0.0883329 10.2878 -0.0883329 10.6428 0.264999L19.7337 9.31262C20.0888 9.66595 20.0888 10.2388 19.7337 10.5921C19.3787 10.9455 18.8031 10.9455 18.4481 10.5921L18.1818 10.3274V17.1945C18.1818 18.1933 17.3689 19 16.3628 19H3.63716C2.63348 19 1.81818 18.1934 1.81818 17.1945V10.3274L1.55192 10.5921ZM4.00088 16.996L6.78577 16.9965V11.5662C6.78577 11.0679 7.20108 10.6639 7.71158 10.6639H13.2885C13.7998 10.6639 14.2143 11.0676 14.2143 11.5662V16.9984L17 17V8.32659L10.5 2L4.00002 8.32664C3.99983 10.0376 4.00088 16.996 4.00088 16.996ZM12 13V18L8 17.999V13.0016L12 13Z" fill="#FF0000"/>
</svg>
