<svg width="28" height="28" viewBox="0 0 28 28" fill="none" xmlns="http://www.w3.org/2000/svg">
<path opacity="0.24" d="M14 28C21.732 28 28 21.732 28 14C28 6.26801 21.732 0 14 0C6.26801 0 0 6.26801 0 14C0 21.732 6.26801 28 14 28Z" fill="black"/>
<path fill-rule="evenodd" clip-rule="evenodd" d="M16.2016 9.26136L16.7363 9.79075C16.9121 9.97429 17 10.1885 17 10.4331C17 10.6827 16.9121 10.8945 16.7363 11.0687L13.2719 14.5L16.7362 17.9313C16.912 18.1055 16.9999 18.3173 16.9999 18.5668C16.9999 18.8115 16.912 19.0257 16.7362 19.2092L16.2015 19.7317C16.021 19.9106 15.8048 20 15.5529 20C15.2963 20 15.0824 19.9105 14.9114 19.7317L10.2709 15.1355C10.0903 14.966 10 14.7543 10 14.5C10 14.2505 10.0903 14.0364 10.2709 13.8576L14.9114 9.26136C15.0872 9.08718 15.3011 9 15.5529 9C15.8 9 16.0162 9.08718 16.2016 9.26136Z" fill="white"/>
</svg>
