<svg width="20" height="16" viewBox="0 0 20 16" fill="none" xmlns="http://www.w3.org/2000/svg">
<path opacity="0.24" fill-rule="evenodd" clip-rule="evenodd" d="M1.81377 0C0.818072 0 0 0.793984 0 1.77341V14.2266C0 15.2066 0.814396 16 1.819 16H18.181C19.185 16 20 15.2042 20 14.2225V4.44412C20 3.4608 19.1843 2.66667 18.1781 2.66667H10.0034L8.71574 0.742815C8.441 0.332343 7.81071 0 7.30762 0H1.81377ZM17.9992 13.9958L2.00431 14L2 2L7.33621 2.00419L8.51839 3.79527C8.84674 4.27902 9.40592 4.57053 10.0055 4.57053L18 4.57022L17.9992 13.9958Z" fill="black"/>
</svg>
