<svg width="18" height="17" viewBox="0 0 18 17" fill="none" xmlns="http://www.w3.org/2000/svg">
<path opacity="0.24" fill-rule="evenodd" clip-rule="evenodd" d="M12.6 0C11.217 0 9.95536 0.53533 9 1.41572C8.04464 0.53533 6.78304 0 5.4 0C2.41766 0 0 2.48924 0 5.55988C0 10.0416 4.48072 14.3732 8.62049 16.9005C8.83009 17.0344 9.17315 17.0326 9.38216 16.8986C13.4946 14.363 18 10.0414 18 5.55988C18 2.48924 15.5823 0 12.6 0ZM9.00495 15C4.67809 12.0265 2 8.55295 2 5.67926C2 3.64726 3.567 2 5.5 2C6.3746 2 7.19483 2.33608 7.8329 2.93642L8.6749 3.72863C8.85689 3.89986 9.14555 3.89756 9.3251 3.72863L10.1671 2.93642C10.8052 2.33608 11.6254 2 12.5 2C14.433 2 16 3.64726 16 5.67926C16 8.62684 13.3319 12.0265 9.00495 15Z" fill="black"/>
</svg>
