<svg width="18" height="20" viewBox="0 0 18 20" fill="none" xmlns="http://www.w3.org/2000/svg">
<path opacity="0.24" fill-rule="evenodd" clip-rule="evenodd" d="M14.85 17.2729C16.5897 17.2729 18 15.8484 18 14.0911V0.92929C18.0016 0.854306 17.9939 0.777902 17.9762 0.701509C17.8626 0.212723 17.3782 -0.0904878 16.8943 0.0242693L5.22802 2.79094C4.82628 2.88621 4.55117 3.23961 4.5 3.63657V13.9428C4.09084 13.7464 3.63312 13.6366 3.15 13.6366C1.4103 13.6366 0 15.0611 0 16.8184C0 18.5757 1.4103 20.0002 3.15 20.0002C4.8897 20.0002 6.3 18.5757 6.3 16.8184V8.0407L16.2 5.6929V11.2155C15.7908 11.0192 15.3331 10.9093 14.85 10.9093C13.1103 10.9093 11.7 12.3338 11.7 14.0911C11.7 15.8484 13.1103 17.2729 14.85 17.2729ZM6 6V4.28133L16 2V3.71867L6 6ZM17 14.5C17 13.6716 16.3284 13 15.5 13C14.6716 13 14 13.6716 14 14.5C14 15.3284 14.6716 16 15.5 16C16.3284 16 17 15.3284 17 14.5ZM3.5 15C4.32843 15 5 15.6716 5 16.5C5 17.3284 4.32843 18 3.5 18C2.67157 18 2 17.3284 2 16.5C2 15.6716 2.67157 15 3.5 15Z" fill="black"/>
</svg>
