<svg width="28" height="28" viewBox="0 0 28 28" fill="none" xmlns="http://www.w3.org/2000/svg">
<path opacity="0.24" d="M14 28C21.732 28 28 21.732 28 14C28 6.26801 21.732 0 14 0C6.26801 0 0 6.26801 0 14C0 21.732 6.26801 28 14 28Z" fill="black"/>
<path fill-rule="evenodd" clip-rule="evenodd" d="M11.7984 9.26136L11.2637 9.79075C11.0879 9.97429 11 10.1885 11 10.4331C11 10.6827 11.0879 10.8945 11.2637 11.0687L14.7281 14.5L11.2638 17.9313C11.088 18.1055 11.0001 18.3173 11.0001 18.5668C11.0001 18.8115 11.088 19.0257 11.2638 19.2092L11.7985 19.7317C11.979 19.9106 12.1952 20 12.4471 20C12.7037 20 12.9176 19.9105 13.0886 19.7317L17.7291 15.1355C17.9097 14.966 18 14.7543 18 14.5C18 14.2505 17.9097 14.0364 17.7291 13.8576L13.0886 9.26136C12.9128 9.08718 12.6989 9 12.4471 9C12.2 9 11.9838 9.08718 11.7984 9.26136Z" fill="white"/>
</svg>
