<svg width="18" height="18" viewBox="0 0 18 18" fill="none" xmlns="http://www.w3.org/2000/svg">
<path fill-rule="evenodd" clip-rule="evenodd" d="M17.6986 16.3006L14.159 12.761L14.158 12.76C16.7188 9.46107 16.2738 4.7398 13.1417 1.97751C10.0096 -0.784774 5.26972 -0.636239 2.31674 2.31674C-0.636239 5.26972 -0.784775 10.0096 1.97751 13.1417C4.7398 16.2737 9.46108 16.7188 12.76 14.158L16.2996 17.6976C16.5477 17.9548 16.9152 18.0582 17.2609 17.9679C17.6067 17.8777 17.8768 17.6079 17.9676 17.2623C18.0583 16.9167 17.9555 16.549 17.6986 16.3006ZM13.1962 11C12.1244 12.8564 10.1436 14 8 14C4.68629 14 2 11.3137 2 8C2 4.68629 4.68629 2 8 2C10.1436 2 12.1244 3.14359 13.1962 5C14.2679 6.85641 14.2679 9.14359 13.1962 11Z" fill="black"/>
</svg>
