<svg width="19" height="20" viewBox="0 0 19 20" fill="none" xmlns="http://www.w3.org/2000/svg">
<path opacity="0.24" fill-rule="evenodd" clip-rule="evenodd" d="M13.6817 3.72984L12.9271 3.2963C12.9271 3.2963 12.1392 1.18529 12.0727 1.04241C11.8216 0.446706 11.1344 0 10.4456 0H8.55435C7.86845 0 7.18423 0.445749 6.91579 1.06812C6.86075 1.18551 6.08155 3.29574 6.08155 3.29574L5.33593 3.73208C5.33593 3.73208 3.06502 3.34267 2.90598 3.32789C2.25633 3.24416 1.51977 3.60662 1.17538 4.19382L0.229742 5.80618C-0.113205 6.39092 -0.0631697 7.1971 0.350132 7.73715C0.425938 7.84283 1.89342 9.57203 1.89342 9.57203C1.89342 9.57203 1.88119 9.85686 1.88119 10C1.88119 10.303 1.89198 10.429 1.89198 10.429C1.89198 10.429 0.425938 12.1572 0.333428 12.2853C-0.0651609 12.7973 -0.114681 13.6066 0.229742 14.1938L1.17538 15.8062C1.5183 16.3909 2.25244 16.7514 2.93412 16.6691C3.06502 16.6573 5.31368 16.2672 5.31368 16.2672L6.07067 16.6921C6.07067 16.6921 6.86075 18.8145 6.9272 18.9574C7.17834 19.5532 7.8655 20 8.55435 20H10.4456C11.1315 20 11.8157 19.5544 12.0841 18.9321C12.1392 18.8147 12.9271 16.7 12.9271 16.7L13.6696 16.269C13.6696 16.269 16.0818 16.6709 16.0873 16.6714C16.7435 16.7558 17.4802 16.3934 17.8246 15.8062L18.7702 14.1938C19.1131 13.6091 19.0632 12.803 18.65 12.263C18.5742 12.1573 17.1061 10.4365 17.1061 10.4365C17.1061 10.4365 17.1188 10.146 17.1188 10C17.1188 9.69704 17.1096 9.56952 17.1096 9.56952C17.1096 9.56952 18.5742 7.8427 18.6667 7.71452C19.0652 7.20254 19.1146 6.39338 18.7702 5.80618L17.8246 4.19382C17.4816 3.60908 16.7474 3.24864 16.0656 3.33097C15.9347 3.34276 13.6817 3.72984 13.6817 3.72984ZM11.1352 4.32533L11.2733 4.77309L11.7168 4.95647C12.136 5.12977 12.5318 5.3519 12.896 5.61749L13.2819 5.89889L13.7518 5.79073C14.4343 5.63362 16.0388 5.37311 16.1927 5.3549C16.2819 5.34435 17.0513 6.63572 16.9973 6.70531C16.9041 6.82535 15.8692 8.04176 15.3876 8.53604L15.0568 8.87542L15.1142 9.3389C15.1412 9.55693 15.1549 9.77753 15.1549 10C15.1549 10.2225 15.1412 10.4431 15.1142 10.6611L15.0568 11.1246L15.3876 11.464C15.8692 11.9582 16.9041 13.1746 16.9973 13.2947C17.0513 13.3643 16.2454 14.6513 16.1927 14.6451C16.0388 14.6269 14.4343 14.3664 13.7518 14.2093L13.2819 14.1011L12.896 14.3825C12.5318 14.6481 12.136 14.8702 11.7168 15.0435L11.2733 15.2269L11.1352 15.6747C10.9344 16.3257 10.3651 17.8018 10.3045 17.94C10.2693 18.02 8.73069 18.02 8.69554 17.9399C8.63491 17.8017 8.06575 16.3257 7.86496 15.6748L7.72685 15.227L7.28329 15.0436C6.86415 14.8703 6.46829 14.6482 6.10406 14.3826L5.71816 14.1012L5.24832 14.2094C4.56574 14.3665 2.96109 14.627 2.8072 14.6452C2.71799 14.6557 1.94869 13.3643 2.00271 13.2947C2.09592 13.1747 3.13084 11.9584 3.61241 11.4642L3.94313 11.1248L3.88573 10.6613C3.85871 10.4432 3.84508 10.2225 3.84508 10C3.84508 9.77747 3.85871 9.5568 3.88573 9.33871L3.94313 8.87522L3.61241 8.53582C3.13084 8.0416 2.09592 6.82531 2.00271 6.70528C1.94869 6.63569 2.71799 5.34429 2.8072 5.35483C2.96109 5.37303 4.56574 5.63347 5.24832 5.7906L5.71816 5.89876L6.10406 5.61738C6.46829 5.3518 6.86415 5.12968 7.28329 4.9564L7.72685 4.77302L7.86496 4.32525C8.06575 3.67426 8.63491 2.19825 8.69554 2.06009C8.73069 1.97999 10.2693 1.97996 10.3045 2.06005C10.3651 2.19821 10.9344 3.67426 11.1352 4.32533ZM9 13C7.34315 13 6 11.6569 6 10C6 8.34315 7.34315 7 9 7C10.6569 7 12 8.34315 12 10C12 11.6569 10.6569 13 9 13ZM10 10C10 10.5523 9.55229 11 9 11C8.44771 11 8 10.5523 8 10C8 9.44771 8.44771 9 9 9C9.55229 9 10 9.44771 10 10Z" fill="black"/>
</svg>
