<svg width="18" height="18" viewBox="0 0 18 18" fill="none" xmlns="http://www.w3.org/2000/svg">
<path opacity="0.24" fill-rule="evenodd" clip-rule="evenodd" d="M4 1C4 0.447715 4.44911 0 4.9954 0H13.0046C13.5543 0 14 0.443865 14 1C14 1.55228 13.5509 2 13.0046 2H4.9954C4.44565 2 4 1.55614 4 1ZM0.0102098 8.0949L0.81962 16.1041C0.92699 17.1665 1.85549 18 2.93197 18H15.068C16.1405 18 17.0733 17.1632 17.1804 16.1041L17.9898 8.0949C18.1051 6.95379 17.2302 6 16.0733 6H1.92668C0.767372 6 -0.104912 6.95576 0.0102098 8.0949ZM2 8L16 8.00369L15.0921 16H2.90829L2 8ZM2.99562 3C2.44995 3 2 3.44772 2 4C2 4.55614 2.44576 5 2.99562 5H15.0044C15.5501 5 16 4.55228 16 4C16 3.44386 15.5542 3 15.0044 3H2.99562Z" fill="black"/>
</svg>
