<svg width="17" height="19" viewBox="0 0 17 19" fill="none" xmlns="http://www.w3.org/2000/svg">
<path opacity="0.24" fill-rule="evenodd" clip-rule="evenodd" d="M12.8838 16.8552C11.6423 17.6461 10.176 18.103 8.60524 18.103C7.03449 18.103 5.56818 17.6461 4.32665 16.8552L3.40722 18.4825C3.12792 18.9768 2.51235 19.1479 2.02476 18.8602C1.54055 18.5746 1.37244 17.9458 1.65372 17.448C1.65372 17.448 2.71587 15.5746 2.74349 15.538C1.3573 14.0528 0.506191 12.0416 0.506191 9.82732C0.506191 8.59484 0.769867 7.42528 1.24272 6.37433C0.48215 5.71026 0 4.72296 0 3.62059C0 1.62099 1.5864 0 3.54333 0C4.85266 0 5.99611 0.725643 6.60953 1.80482C7.24793 1.63952 7.91654 1.55168 8.60524 1.55168C9.22797 1.55168 9.83429 1.6235 10.4167 1.75946C11.0361 0.70536 12.1658 0 13.4567 0C15.4136 0 17 1.62099 17 3.62059C17 4.64983 16.5797 5.57876 15.9049 6.23796C16.4172 7.32372 16.7043 8.54126 16.7043 9.82732C16.7043 12.0416 15.8532 14.0528 14.467 15.538C14.4946 15.5746 15.5568 17.448 15.5568 17.448C15.838 17.9458 15.6699 18.5746 15.1857 18.8602C14.6981 19.1479 14.0826 18.9768 13.8033 18.4825L12.8838 16.8552ZM8 5.99981C8 5.44763 8.44386 5 9 5C9.55229 5 10 5.44372 10 5.99981V10C10 10.5523 9.55665 11 9.00095 11H6.99905C6.44729 11 6 10.5561 6 10C6 9.44771 6.44335 9 6.99905 9H8V5.99981ZM2 3.85725C2 2.83152 2.76882 2 3.71722 2C4.22011 2 4.68183 2.23597 5 2.62147C3.9879 3.2296 3.09352 4.03913 2.36313 5C2.13411 4.68211 2 4.28356 2 3.85725ZM15 3.31146C15 2.58716 14.2098 2 13.2349 2C12.7605 2 12.3218 2.14035 12 2.37388C13.0448 2.78554 13.9728 3.3391 14.7374 4C14.9048 3.79833 15 3.56166 15 3.31146ZM9 16C5.68629 16 3 13.3137 3 10C3 6.68629 5.68629 4 9 4C12.3137 4 15 6.68629 15 10C15 13.3137 12.3137 16 9 16Z" fill="black"/>
</svg>
